<?xml version="1.0" encoding="utf-8"?>
<!-- Generator: Adobe Illustrator 23.0.6, SVG Export Plug-In . SVG Version: 6.00 Build 0)  -->
<svg version="1.1" xmlns="http://www.w3.org/2000/svg" xmlns:xlink="http://www.w3.org/1999/xlink" x="0px" y="0px"
	 viewBox="0 0 38 38" style="enable-background:new 0 0 38 38;" xml:space="preserve">
<style type="text/css">
	.st0{display:none;}
	.st1{display:inline;fill:#FAFAFA;}
	.st2{display:inline;}
	.st3{fill:#FFFFFF;}
	.st4{fill:url(#shape_3_1_);}
	.st5{fill:url(#SVGID_1_);}
	.st6{fill-rule:evenodd;clip-rule:evenodd;fill:#FFFFFF;}
</style>
<g id="background_1_" class="st0">
	<path id="background" class="st1" d="M907.5,552.4H-333.1c-11,0-19.9-8.9-19.9-19.9V-494.6c0-11,8.9-19.9,19.9-19.9H907.5
		c11,0,19.9,8.9,19.9,19.9V532.6C927.3,543.5,918.4,552.4,907.5,552.4z"/>
</g>
<g id="WhatsApp_Logo">
	<g id="shape_4" class="st0">
		
			<image style="display:inline;overflow:visible;opacity:6.000000e-02;" width="106" height="103" xlink:href="DC329D86.png"  transform="matrix(1 0 0 1 -34.0001 -26.789)">
		</image>
		<g class="st2">
			
				<image style="overflow:visible;opacity:0.15;" width="46" height="47" xlink:href="DC329D8A.png"  transform="matrix(1 0 0 1 -4.0001 -0.789)">
			</image>
			<g>
				<path class="st3" d="M5.2,32.5l1.9-7.1c-1.2-2.1-1.8-4.4-1.8-6.9c0-7.6,6.2-13.7,13.7-13.7c3.7,0,7.1,1.4,9.7,4
					c2.6,2.6,4,6,4,9.7c0,7.6-6.2,13.7-13.7,13.7c0,0,0,0,0,0h0c-2.3,0-4.6-0.6-6.6-1.7L5.2,32.5z M12.8,28.1l0.4,0.2
					c1.8,1,3.8,1.6,5.8,1.6h0c6.3,0,11.4-5.1,11.4-11.4c0-3-1.2-5.9-3.3-8.1c-2.2-2.2-5-3.3-8.1-3.3c-6.3,0-11.4,5.1-11.4,11.4
					c0,2.2,0.6,4.3,1.7,6.1L9.7,25l-1.2,4.2L12.8,28.1z"/>
			</g>
		</g>
	</g>
	<linearGradient id="shape_3_1_" gradientUnits="userSpaceOnUse" x1="19.0805" y1="37.5139" x2="19.0805" y2="0.8211">
		<stop  offset="0" style="stop-color:#20B038"/>
		<stop  offset="1" style="stop-color:#60D66A"/>
	</linearGradient>
	<path id="shape_3" class="st4" d="M0.8,37.5l2.6-9.4C1.8,25.3,1,22.2,1,19C1,9,9.1,0.8,19.2,0.8c4.9,0,9.4,1.9,12.9,5.3
		c3.4,3.4,5.3,8,5.3,12.9c0,10-8.2,18.2-18.2,18.2c0,0,0,0,0,0h0c-3,0-6-0.8-8.7-2.2L0.8,37.5z"/>
	<g id="shape_2">
		
			<image style="overflow:visible;opacity:4.000000e-02;" width="62" height="63" xlink:href="DC329D8D.png"  transform="matrix(1 0 0 1 -12 -11.5517)">
		</image>
		<g>
			<g>
				<linearGradient id="SVGID_1_" gradientUnits="userSpaceOnUse" x1="19.0805" y1="38.0086" x2="19.0805" y2="-9.094947e-13">
					<stop  offset="0" style="stop-color:#F9F9F9"/>
					<stop  offset="1" style="stop-color:#FFFFFF"/>
				</linearGradient>
				<path class="st5" d="M0.2,38l2.7-9.8c-1.6-2.9-2.5-6.1-2.5-9.4C0.3,8.4,8.8,0,19.2,0c5,0,9.8,2,13.3,5.5C36,9.1,38,13.8,38,18.8
					c0,10.4-8.5,18.8-18.8,18.8c0,0,0,0,0,0h0c-3.2,0-6.3-0.8-9-2.3L0.2,38z M10.6,32l0.6,0.3c2.4,1.4,5.2,2.2,8,2.2h0
					c8.6,0,15.7-7,15.7-15.7c0-4.2-1.6-8.1-4.6-11.1c-3-3-6.9-4.6-11.1-4.6c-8.6,0-15.7,7-15.7,15.7c0,3,0.8,5.8,2.4,8.3l0.4,0.6
					l-1.6,5.8L10.6,32z"/>
			</g>
		</g>
	</g>
	<g id="shape_1">
		
			<image style="overflow:visible;opacity:6.000000e-02;" width="44" height="43" xlink:href="DC329D8E.png"  transform="matrix(1 0 0 1 -3 -0.5517)">
		</image>
		<g>
			<path class="st6" d="M14.5,11.1c-0.4-0.8-0.7-0.8-1.1-0.8c-0.3,0-0.6,0-0.9,0c-0.3,0-0.8,0.1-1.3,0.6c-0.4,0.5-1.6,1.6-1.6,3.9
				c0,2.3,1.7,4.6,1.9,4.9c0.2,0.3,3.3,5.2,8,7.1c4,1.6,4.8,1.3,5.6,1.2s2.8-1.1,3.2-2.2c0.4-1.1,0.4-2,0.3-2.2
				c-0.1-0.2-0.4-0.3-0.9-0.5s-2.8-1.4-3.2-1.5s-0.7-0.2-1.1,0.2c-0.3,0.5-1.2,1.5-1.5,1.8c-0.3,0.3-0.5,0.4-1,0.1
				c-0.5-0.2-2-0.7-3.8-2.3c-1.4-1.2-2.3-2.8-2.6-3.3c-0.3-0.5,0-0.7,0.2-1c0.2-0.2,0.5-0.5,0.7-0.8c0.2-0.3,0.3-0.5,0.5-0.8
				c0.2-0.3,0.1-0.6,0-0.8C15.8,14.4,14.9,12.1,14.5,11.1z"/>
		</g>
	</g>
</g>
</svg>
